<mxfile host="app.diagrams.net" agent="Mozilla/5.0 (Windows NT 10.0; Win64; x64) AppleWebKit/537.36 (KHTML, like Gecko) Chrome/129.0.0.0 Safari/537.36 Edg/129.0.0.0" version="24.7.17">
  <diagram name="Page-1" id="c7558073-3199-34d8-9f00-42111426c3f3">
    <mxGraphModel dx="1825" dy="787" grid="0" gridSize="24" guides="1" tooltips="1" connect="1" arrows="1" fold="1" page="0" pageScale="1" pageWidth="826" pageHeight="1169" background="#000099" math="0" shadow="0">
      <root>
        <mxCell id="0" />
        <mxCell id="1" parent="0" />
        <mxCell id="-sDVmUkW7w9gJZ2iMdyc-38" value="" style="edgeStyle=orthogonalEdgeStyle;rounded=0;orthogonalLoop=1;jettySize=auto;html=1;strokeColor=#FFFFFF;strokeWidth=2;" parent="1" source="2" target="-sDVmUkW7w9gJZ2iMdyc-37" edge="1">
          <mxGeometry relative="1" as="geometry" />
        </mxCell>
        <mxCell id="2" value="&lt;p style=&quot;margin: 4px 0px 0px; text-align: center;&quot;&gt;&lt;font color=&quot;#ffffff&quot;&gt;1,串口等外设初始化&lt;/font&gt;&lt;/p&gt;&lt;p style=&quot;margin: 4px 0px 0px; text-align: center;&quot;&gt;&lt;font color=&quot;#ffffff&quot;&gt;2，创建各个功能的任务&lt;/font&gt;&lt;/p&gt;&lt;p style=&quot;margin: 4px 0px 0px; text-align: center;&quot;&gt;&lt;font color=&quot;#ffffff&quot;&gt;3、lib Modbus初始化（从机模式&lt;/font&gt;&lt;span style=&quot;color: rgb(255, 255, 255); background-color: initial;&quot;&gt;）&lt;/span&gt;&lt;/p&gt;&lt;p style=&quot;margin: 4px 0px 0px; text-align: center;&quot;&gt;&lt;span style=&quot;color: rgb(255, 255, 255); background-color: initial;&quot;&gt;4，参数库的初始化&lt;/span&gt;&lt;/p&gt;&lt;p style=&quot;margin: 4px 0px 0px; text-align: center;&quot;&gt;&lt;span style=&quot;color: rgb(255, 255, 255); background-color: initial;&quot;&gt;&lt;br&gt;&lt;/span&gt;&lt;/p&gt;" style="verticalAlign=middle;align=center;overflow=fill;fontSize=12;fontFamily=Helvetica;html=1;rounded=1;fontStyle=1;strokeWidth=3;fillColor=#0000FF;" parent="1" vertex="1">
          <mxGeometry x="-5" y="228.5" width="200" height="83.5" as="geometry" />
        </mxCell>
        <mxCell id="4" value="app start" style="whiteSpace=wrap;align=center;verticalAlign=middle;fontStyle=1;strokeWidth=3;fillColor=#0066CC;" parent="1" vertex="1">
          <mxGeometry x="50" y="148" width="90" height="60" as="geometry" />
        </mxCell>
        <mxCell id="37" value="" style="edgeStyle=none;noEdgeStyle=1;strokeColor=#FFFFFF;strokeWidth=2" parent="1" source="4" target="2" edge="1">
          <mxGeometry width="100" height="100" relative="1" as="geometry">
            <mxPoint x="280" y="190" as="sourcePoint" />
            <mxPoint x="380" y="90" as="targetPoint" />
          </mxGeometry>
        </mxCell>
        <mxCell id="-sDVmUkW7w9gJZ2iMdyc-37" value="" style="whiteSpace=wrap;html=1;fillColor=#0000FF;rounded=1;fontStyle=1;strokeWidth=3;fontColor=#FFFFFF;" parent="1" vertex="1">
          <mxGeometry x="-362" y="420.5" width="158" height="74" as="geometry" />
        </mxCell>
        <mxCell id="-sDVmUkW7w9gJZ2iMdyc-39" value="激光传感器任务" style="text;strokeColor=none;align=center;fillColor=none;html=1;verticalAlign=middle;whiteSpace=wrap;rounded=0;fontFamily=Helvetica;fontSize=12;fontColor=#FFFFFF;fontStyle=1;" parent="1" vertex="1">
          <mxGeometry x="-362" y="381" width="60" height="30" as="geometry" />
        </mxCell>
        <mxCell id="PsqxnXAQ3Fkz8UXOKLwo-37" value="" style="edgeStyle=orthogonalEdgeStyle;rounded=0;orthogonalLoop=1;jettySize=auto;html=1;strokeColor=#FFFFFF;strokeWidth=2;" edge="1" parent="1" target="PsqxnXAQ3Fkz8UXOKLwo-38" source="2">
          <mxGeometry relative="1" as="geometry">
            <mxPoint x="200" y="360" as="sourcePoint" />
            <mxPoint x="-8" y="432" as="targetPoint" />
            <Array as="points">
              <mxPoint x="95" y="366" />
              <mxPoint x="-15" y="366" />
            </Array>
          </mxGeometry>
        </mxCell>
        <mxCell id="PsqxnXAQ3Fkz8UXOKLwo-38" value="" style="whiteSpace=wrap;html=1;fillColor=#0000FF;rounded=1;fontStyle=1;strokeWidth=3;fontColor=#FFFFFF;" vertex="1" parent="1">
          <mxGeometry x="-95" y="420.5" width="158" height="74" as="geometry" />
        </mxCell>
        <mxCell id="PsqxnXAQ3Fkz8UXOKLwo-39" value="计算疫苗盒高度任务" style="text;strokeColor=none;align=center;fillColor=none;html=1;verticalAlign=middle;whiteSpace=wrap;rounded=0;fontFamily=Helvetica;fontSize=12;fontColor=#FFFFFF;fontStyle=1;" vertex="1" parent="1">
          <mxGeometry x="-108" y="395" width="77" height="30" as="geometry" />
        </mxCell>
        <mxCell id="PsqxnXAQ3Fkz8UXOKLwo-40" value="" style="edgeStyle=orthogonalEdgeStyle;rounded=0;orthogonalLoop=1;jettySize=auto;html=1;strokeColor=#FFFFFF;strokeWidth=2;" edge="1" parent="1" target="PsqxnXAQ3Fkz8UXOKLwo-41" source="2">
          <mxGeometry relative="1" as="geometry">
            <mxPoint x="473" y="282" as="sourcePoint" />
          </mxGeometry>
        </mxCell>
        <mxCell id="PsqxnXAQ3Fkz8UXOKLwo-41" value="" style="whiteSpace=wrap;html=1;fillColor=#0000FF;rounded=1;fontStyle=1;strokeWidth=3;fontColor=#FFFFFF;" vertex="1" parent="1">
          <mxGeometry x="128" y="420.5" width="158" height="74" as="geometry" />
        </mxCell>
        <mxCell id="PsqxnXAQ3Fkz8UXOKLwo-42" value="Modbus通信任务" style="text;strokeColor=none;align=center;fillColor=none;html=1;verticalAlign=middle;whiteSpace=wrap;rounded=0;fontFamily=Helvetica;fontSize=12;fontColor=#FFFFFF;fontStyle=1;" vertex="1" parent="1">
          <mxGeometry x="122" y="384" width="60" height="30" as="geometry" />
        </mxCell>
        <mxCell id="PsqxnXAQ3Fkz8UXOKLwo-43" value="" style="edgeStyle=orthogonalEdgeStyle;rounded=0;orthogonalLoop=1;jettySize=auto;html=1;strokeColor=#FFFFFF;strokeWidth=2;" edge="1" parent="1" target="PsqxnXAQ3Fkz8UXOKLwo-44" source="2">
          <mxGeometry relative="1" as="geometry">
            <mxPoint x="691" y="260.5" as="sourcePoint" />
          </mxGeometry>
        </mxCell>
        <mxCell id="PsqxnXAQ3Fkz8UXOKLwo-44" value="" style="whiteSpace=wrap;html=1;fillColor=#0000FF;rounded=1;fontStyle=1;strokeWidth=3;fontColor=#FFFFFF;" vertex="1" parent="1">
          <mxGeometry x="334" y="420.5" width="158" height="74" as="geometry" />
        </mxCell>
        <mxCell id="PsqxnXAQ3Fkz8UXOKLwo-45" value="led闪烁和看门狗喂狗任务" style="text;strokeColor=none;align=center;fillColor=none;html=1;verticalAlign=middle;whiteSpace=wrap;rounded=0;fontFamily=Helvetica;fontSize=12;fontColor=#FFFFFF;fontStyle=1;" vertex="1" parent="1">
          <mxGeometry x="310" y="384" width="96" height="30" as="geometry" />
        </mxCell>
      </root>
    </mxGraphModel>
  </diagram>
</mxfile>
